<svg xmlns="http://www.w3.org/2000/svg" viewBox="0 0 24 24" width="64" height="64" fill="white" color="white"><path d="M12 2C6.48 2 2 6.48 2 12s4.48 10 10 10 10-4.48 10-10S17.52 2 12 2zm4.6 14.4c-.2.3-.6.4-.9.2-2.5-1.5-5.7-1.9-9.5-1-.4.1-.7-.2-.8-.6-.1-.4.2-.7.6-.8 4.2-1 7.7-.5 10.5 1.2.3.2.4.6.1 1zm1-2.2c-.3.4-.8.5-1.2.3-2.9-1.8-6.9-2.3-10.6-1.3-.4.1-.9-.2-1-.6-.1-.4.2-.9.6-1 4.2-1.1 8.7-.6 12 1.4.4.3.5.8.2 1.2zm.1-2.4c-3.4-2-8.1-2.2-11.8-1.2-.5.1-1-.2-1.2-.7-.1-.5.2-1 .7-1.2 4.3-1.1 9.5-.9 13.4 1.4.5.3.6.9.3 1.4-.3.4-.9.6-1.4.3z"/></svg>